HIERARCHY
ROOT Hips
{
	OFFSET 0.00000 0.00000 0.00000
	CHANNELS 6 Xposition Yposition Zposition Zrotation Yrotation Xrotation 
	JOINT LHipJoint
	{
		OFFSET 0 0 0
		CHANNELS 3 Zrotation Yrotation Xrotation
		JOINT LeftUpLeg
		{
			OFFSET 1.37590 -1.78394 0.89329
			CHANNELS 3 Zrotation Yrotation Xrotation
			JOINT LeftLeg
			{
				OFFSET 2.47928 -6.81178 0.00000
				CHANNELS 3 Zrotation Yrotation Xrotation
				JOINT LeftFoot
				{
					OFFSET 2.63345 -7.23535 0.00000
					CHANNELS 3 Zrotation Yrotation Xrotation
					JOINT LeftToeBase
					{
						OFFSET 0.23938 -0.65768 2.27012
						CHANNELS 3 Zrotation Yrotation Xrotation
						End Site
						{
							OFFSET 0.00000 -0.00000 1.18363
						}
					}
				}
			}
		}
	}
	JOINT RHipJoint
	{
		OFFSET 0 0 0
		CHANNELS 3 Zrotation Yrotation Xrotation
		JOINT RightUpLeg
		{
			OFFSET -1.33617 -1.78394 0.89329
			CHANNELS 3 Zrotation Yrotation Xrotation
			JOINT RightLeg
			{
				OFFSET -2.56922 -7.05888 0.00000
				CHANNELS 3 Zrotation Yrotation Xrotation
				JOINT RightFoot
				{
					OFFSET -2.56568 -7.04915 0.00000
					CHANNELS 3 Zrotation Yrotation Xrotation
					JOINT RightToeBase
					{
						OFFSET -0.27533 -0.75646 2.18105
						CHANNELS 3 Zrotation Yrotation Xrotation
						End Site
						{
							OFFSET -0.00000 -0.00000 1.15233
						}
					}
				}
			}
		}
	}
	JOINT LowerBack
	{
		OFFSET 0 0 0
		CHANNELS 3 Zrotation Yrotation Xrotation
		JOINT Spine
		{
			OFFSET 0.06190 2.15152 -0.00935
			CHANNELS 3 Zrotation Yrotation Xrotation
			JOINT Spine1
			{
				OFFSET 0.06334 2.15332 0.00872
				CHANNELS 3 Zrotation Yrotation Xrotation
				JOINT Neck
				{
					OFFSET 0 0 0
					CHANNELS 3 Zrotation Yrotation Xrotation
					JOINT Neck1
					{
						OFFSET -0.04202 1.66908 0.23524
						CHANNELS 3 Zrotation Yrotation Xrotation
						JOINT Head
						{
							OFFSET 0.07510 1.69357 -0.24440
							CHANNELS 3 Zrotation Yrotation Xrotation
							End Site
							{
								OFFSET 0.02556 1.71719 -0.11000
							}
						}
					}
				}
				JOINT LeftShoulder
				{
					OFFSET 0 0 0
					CHANNELS 3 Zrotation Yrotation Xrotation
					JOINT LeftArm
					{
						OFFSET 3.67168 1.26306 -0.41342
						CHANNELS 3 Zrotation Yrotation Xrotation
						JOINT LeftForeArm
						{
							OFFSET 4.68510 -0.00000 -0.00000
							CHANNELS 3 Zrotation Yrotation Xrotation
							JOINT LeftHand
							{
								OFFSET 3.39626 -0.00000 -0.00000
								CHANNELS 3 Zrotation Yrotation Xrotation
								JOINT LeftFingerBase
								{
									OFFSET 0 0 0
									CHANNELS 3 Zrotation Yrotation Xrotation
									JOINT LeftHandIndex1
									{
										OFFSET 0.48608 -0.00000 -0.00000
										CHANNELS 3 Zrotation Yrotation Xrotation
										End Site
										{
											OFFSET 0.39189 -0.00000 -0.00000
										}
									}
								}
								JOINT LThumb
								{
									OFFSET 0 0 0
									CHANNELS 3 Zrotation Yrotation Xrotation
									End Site
									{
										OFFSET 0.39787 -0.00000 0.39787
									}
								}
							}
						}
					}
				}
				JOINT RightShoulder
				{
					OFFSET 0 0 0
					CHANNELS 3 Zrotation Yrotation Xrotation
					JOINT RightArm
					{
						OFFSET -3.04136 1.42992 -0.76390
						CHANNELS 3 Zrotation Yrotation Xrotation
						JOINT RightForeArm
						{
							OFFSET -5.55576 -0.00000 -0.00000
							CHANNELS 3 Zrotation Yrotation Xrotation
							JOINT RightHand
							{
								OFFSET -3.32774 -0.00000 -0.00000
								CHANNELS 3 Zrotation Yrotation Xrotation
								JOINT RightFingerBase
								{
									OFFSET 0 0 0
									CHANNELS 3 Zrotation Yrotation Xrotation
									JOINT RightHandIndex1
									{
										OFFSET -0.50763 -0.00000 -0.00000
										CHANNELS 3 Zrotation Yrotation Xrotation
										End Site
										{
											OFFSET -0.40926 -0.00000 -0.00000
										}
									}
								}
								JOINT RThumb
								{
									OFFSET 0 0 0
									CHANNELS 3 Zrotation Yrotation Xrotation
									End Site
									{
										OFFSET -0.41551 -0.00000 0.41551
									}
								}
							}
						}
					}
				}
			}
		}
	}
}
MOTION
Frames: 7
Frame Time: .0083333
41.611 17.8271 6.4536 0 0 0 0 0 0 -21 0 0 0 0 0 0 0 0 0 0 0 0 0 0 21 0 0 0 0 0 0 0 0 0 0 0 0 0 0 0 0 0 0 0 0 0 0 -16 0 0 21 0 0 11 0 0 0 -8 0 0 0 0 0 0 0 0 0 0 0 0 0 0 0 0 0 0 0 0 8 0 0 0 0 0 0 0 0 0 0 0 0 0 0 0 0 0
41.6110 17.8271 6.4536 -88.7049 -84.4920 98.1542 0.0000 0.0000 0.0000 -13.2217 -7.4799 -5.2004 0.2481 3.2048 8.8495 0.2189 1.2949 -9.4075 0.0064 0.5180 1.4233 0.0000 0.0000 0.0000 24.3924 7.2640 -7.9066 -0.5440 -4.7256 13.1274 0.1546 -10.6596 -12.4957 -0.2764 -3.3817 9.3433 5.1316 -0.1131 -5.7074 2.4308 -0.5528 -1.9387 -0.4120 -0.3127 1.1786 -7.8568 -4.1199 -13.3266 5.4644 -5.1679 17.1561 2.5360 -2.5102 7.8404 -0.0000 -0.0000 0.0000 -91.6922 2.7889 11.2719 16.9360 -26.7733 -4.0585 -0.0000 -0.0000 14.4809 8.1079 26.6662 3.6582 -7.1250 0.0000 -0.0000 -23.3929 55.3042 -6.1640 -0.0000 -0.0000 0.0000 83.5969 1.6157 10.9765 -12.8709 21.0977 -2.4066 0.0000 0.0000 10.1657 -14.3587 -26.1883 6.4456 7.1250 -0.0000 -0.0000 16.8625 -56.0900 -4.6813
41.6205 17.8331 6.4563 -88.7735 -84.4728 98.2438 0.0000 0.0000 0.0000 -13.2033 -7.6164 -5.2588 0.2516 3.2276 8.9131 0.2175 1.4117 -9.4420 0.0066 0.5263 1.4463 0.0000 0.0000 0.0000 24.3788 7.2013 -8.0737 -0.5539 -4.7676 13.2470 0.1440 -10.5319 -12.4847 -0.2722 -3.3560 9.2716 5.4038 -0.1159 -5.4022 2.2906 -0.5338 -2.2604 -0.7033 -0.3212 0.6729 -8.0051 -4.0848 -13.3490 5.7744 -5.1924 17.7658 2.6628 -2.5113 8.0601 -0.0000 -0.0000 0.0000 -91.4703 3.1197 12.5095 17.4170 -27.4043 -4.2775 -0.0000 -0.0000 13.9115 8.1593 26.8114 3.7002 -7.1250 0.0000 -0.0000 -23.4372 55.4469 -6.2598 -0.0000 -0.0000 0.0000 83.7704 1.5225 11.3206 -13.1027 21.4375 -2.4907 0.0000 0.0000 9.9798 -13.7873 -27.8253 6.5343 7.1250 -0.0000 -0.0000 18.4439 -57.5364 -5.7932
41.6060 17.8277 6.4434 -88.3070 -84.5418 97.6484 0.0000 0.0000 0.0000 -13.2781 -7.5223 -5.0128 0.2448 3.1840 8.7914 0.2186 1.3179 -9.4145 0.0068 0.5334 1.4658 0.0000 0.0000 0.0000 24.3777 7.1167 -7.8059 -0.5435 -4.7233 13.1209 0.1453 -10.5532 -12.4962 -0.2683 -3.3321 9.2048 5.6248 -0.0549 -5.0044 2.0114 -0.4146 -2.5788 -1.1031 -0.2819 0.1240 -7.7132 -4.0681 -12.9966 5.8007 -5.2871 17.9453 2.6179 -2.5462 8.0554 -0.0000 0.0000 0.0000 -91.0388 3.4266 13.5101 17.7268 -27.8059 -4.4211 -0.0000 -0.0000 13.8988 8.2851 26.7252 3.7467 -7.1250 0.0000 -0.0000 -23.2576 55.3925 -6.1765 -0.0000 0.0000 0.0000 84.2109 1.0510 11.5280 -13.4744 21.9784 -2.6282 0.0000 0.0000 9.4296 -14.5438 -26.5120 6.6058 7.1250 -0.0000 -0.0000 16.8611 -56.4392 -4.8250
41.6057 17.8269 6.4376 -87.8393 -84.5783 97.1697 0.0000 0.0000 0.0000 -13.3066 -7.5688 -5.0056 0.2468 3.1969 8.8275 0.2194 1.3248 -9.4350 0.0065 0.5195 1.4274 0.0000 0.0000 0.0000 24.3549 7.0767 -7.8112 -0.5444 -4.7271 13.1319 0.1460 -10.5816 -12.5310 -0.2722 -3.3558 9.2709 5.1943 -0.1611 -5.5023 2.2850 -0.5873 -2.3665 -0.5956 -0.3502 0.6190 -7.8249 -4.0024 -13.0381 5.6597 -5.1352 17.9063 2.6060 -2.4930 8.0384 -0.0000 0.0000 0.0000 -91.4670 2.8686 13.9376 18.0245 -28.1885 -4.5608 -0.0000 -0.0000 14.0488 8.1536 26.0903 3.6055 -7.1250 0.0000 -0.0000 -22.9807 54.7860 -5.7503 -0.0000 0.0000 0.0000 83.7752 1.6567 12.1899 -13.7128 22.3227 -2.7181 0.0000 0.0000 8.9270 -14.6677 -26.3274 6.6214 7.1250 -0.0000 -0.0000 16.6276 -56.2867 -4.6935
41.6045 17.8264 6.4315 -87.6704 -84.5808 96.9780 0.0000 0.0000 0.0000 -13.2913 -7.5921 -4.9776 0.2482 3.2060 8.8529 0.2217 1.3131 -9.4744 0.0067 0.5296 1.4551 0.0000 0.0000 0.0000 24.3849 7.1187 -7.7765 -0.5467 -4.7368 13.1594 0.1486 -10.6141 -12.5362 -0.2702 -3.3438 9.2374 5.1620 -0.1764 -5.5149 2.2894 -0.6053 -2.4391 -0.5739 -0.3621 0.5508 -7.8240 -3.9469 -13.0162 5.7179 -5.0839 18.0505 2.6321 -2.4660 8.0799 -0.0000 -0.0000 0.0000 -91.4379 2.7653 14.6990 18.3746 -28.6342 -4.7274 -0.0000 -0.0000 13.9973 8.2716 26.0030 3.6469 -7.1250 0.0000 -0.0000 -22.8110 54.7282 -5.6715 -0.0000 -0.0000 0.0000 83.7821 1.7657 12.6183 -14.0367 22.7872 -2.8423 0.0000 0.0000 8.5703 -15.0112 -27.5250 7.0644 7.1250 -0.0000 -0.0000 16.9897 -57.5108 -5.3072
41.6037 17.8262 6.4253 -87.3859 -84.5825 96.6725 0.0000 0.0000 0.0000 -13.2809 -7.7146 -4.9163 0.2499 3.2169 8.8833 0.2227 1.3757 -9.5258 0.0089 0.6087 1.6728 0.0000 0.0000 0.0000 24.4073 7.1092 -7.7465 -0.5462 -4.7349 13.1539 0.1483 -10.6314 -12.5713 -0.2691 -3.3369 9.2181 3.0927 -0.2071 -4.8471 3.8435 -0.5365 -2.8831 2.1937 -0.3305 -0.2381 -8.8485 -3.9297 -12.9388 4.3118 -4.5660 18.2362 2.3892 -2.4272 8.0892 -0.0000 0.0000 0.0000 -93.9947 3.0257 15.1239 18.6754 -29.0133 -4.8724 -0.0000 -0.0000 14.6410 8.2850 25.6453 3.6062 -7.1250 0.0000 -0.0000 -22.5775 54.4021 -5.4252 -0.0000 0.0000 0.0000 81.1585 1.2506 13.5850 -14.4585 23.3864 -3.0077 0.0000 0.0000 7.2354 -14.7430 -26.6075 6.7218 7.1250 -0.0000 -0.0000 16.7131 -56.5722 -4.8353
